<?xml version="1.0" encoding="utf-8"?>
<!-- Generator: Adobe Illustrator 21.0.0, SVG Export Plug-In . SVG Version: 6.00 Build 0)  -->
<svg version="1.1" id="Layer_1" xmlns="http://www.w3.org/2000/svg" xmlns:xlink="http://www.w3.org/1999/xlink" x="0px" y="0px"
	 viewBox="0 0 60 150" style="enable-background:new 0 0 60 150;" xml:space="preserve">
<style type="text/css">
	.st0{fill:#FFFFFF;}
	.st1{fill:#6D6E71;}
	.st2{fill:#5A5B5E;}
	.st3{fill:#AEB0B1;}
	.st4{fill:#FFFFFF;stroke:#58595B;stroke-width:4;stroke-linecap:round;stroke-linejoin:round;stroke-miterlimit:10;}
	.st5{fill:#58595B;}
	.st6{fill:#A8724B;}
	.st7{fill:#916341;}
	.st8{fill:#754921;}
	.st9{fill:#FF6B6B;}
	.st10{fill:#FFD57E;}
	.st11{fill:#D9FF93;}
	.st12{fill:#E8E8E8;}
	.st13{fill:#85808A;}
	.st14{fill:#1787FF;}
	.st15{fill:#4DE69F;}
	.st16{fill:#C92A2A;}
	.st17{fill:#00386E;}
	.st18{fill:#231F20;}
	.st19{fill:#CCCCCC;}
	.st20{fill:#A12222;}
	.st21{fill:#002D58;}
	.st22{fill:#1C191A;}
	.st23{fill:#851616;}
	.st24{fill:#B01E1E;}
	.st25{fill:#E32626;}
	.st26{fill:#991919;}
	.st27{fill:#591300;}
	.st28{fill:#FF880F;}
	.st29{fill:#D16F0C;}
	.st30{fill:#F3D9D9;}
	.st31{fill:#ECC6C6;}
	.st32{fill:#E6B6B6;}
	.st33{fill:#F1D2D2;}
	.st34{fill:#E5B0B0;}
	.st35{fill:#D3AEAA;}
	.st36{fill:#F0CFCF;}
	.st37{fill:#F2D4D4;}
	.st38{fill:#B3F294;}
	.st39{fill:#99C4FF;}
	.st40{fill:#D2FFBA;}
	.st41{fill:#BDD9FF;}
	.st42{fill:#7C7E82;}
	.st43{fill:#E06AC6;}
	.st44{fill:#D9B580;}
	.st45{fill:#B556A0;}
	.st46{fill:#AD9166;}
	.st47{fill:#805075;}
	.st48{fill:#7E40B8;}
	.st49{fill:#A9FF8A;}
	.st50{fill:#FFFEA2;}
	.st51{fill:#5CFFEC;}
	.st52{fill:#6B92ED;}
	.st53{fill:#A398E7;}
	.st54{fill:#7F75BD;}
	.st55{fill:#FF564C;}
	.st56{fill:#8A81C4;}
	.st57{fill:#585082;}
	.st58{fill:#339CEE;}
	.st59{fill:#CFCFCF;}
	.st60{fill:#3E314D;}
	.st61{fill:#CF170E;}
	.st62{fill:#FFD49B;}
	.st63{fill:#E0D2C4;}
	.st64{fill:#E3BD8A;}
	.st65{fill:#A39287;}
	.st66{fill:#3F3E40;}
	.st67{fill:#64C2E3;}
	.st68{fill:#16C4C1;}
	.st69{fill:#48484A;}
	.st70{fill:#6BE0EB;}
	.st71{fill:#686A6B;}
	.st72{fill:#34A3C9;}
	.st73{fill:#7A7C7D;}
	.st74{fill:#ED3F45;}
	.st75{fill:#242424;}
	.st76{fill:#D9F1F4;}
	.st77{fill:#6B5C4E;}
	.st78{fill:#EBFFFF;}
	.st79{fill:#9BBECA;}
	.st80{fill:#564A3E;}
	.st81{fill:#B8D9E2;}
	.st82{fill:#645649;}
	.st83{fill:#424244;}
	.st84{fill:#766556;}
	.st85{fill:#353738;}
	.st86{fill:#2EADFF;}
	.st87{fill:#259CE8;}
	.st88{fill:#B9FEFF;}
	.st89{fill:#7EE6E8;}
	.st90{fill:#1485CC;}
	.st91{fill:#97F5F7;}
	.st92{fill:#333333;}
	.st93{fill:#E8DEC5;}
	.st94{fill:#1DA87B;}
	.st95{fill:#F0ECE2;}
	.st96{fill:#34D09C;}
	.st97{fill:#53F5D1;}
	.st98{fill:#B5DB76;}
	.st99{fill:#8BB548;}
	.st100{fill:#D2FF89;}
	.st101{fill:#B9EB67;}
	.st102{fill:#699124;}
	.st103{fill:#7FBD6E;}
	.st104{fill:#22A0C9;}
	.st105{fill:#51C2E8;}
	.st106{fill:#E3E691;}
	.st107{fill:#036E91;}
	.st108{fill:#B08851;}
	.st109{fill:#BDAD64;}
	.st110{fill:#70CCA6;}
	.st111{fill:#A68DC7;}
	.st112{fill:#9E763F;}
	.st113{fill:#9275BA;}
	.st114{fill:#4AA882;}
	.st115{fill:#D9CE96;}
	.st116{fill:#6E5638;}
	.st117{fill:#846491;}
	.st118{fill:#F5AA40;}
	.st119{fill:#775882;}
	.st120{fill:#9A7AA6;}
	.st121{fill:#F58840;}
	.st122{fill:#4A4052;}
	.st123{fill:#A3B06D;}
	.st124{fill:#D1A976;}
	.st125{fill:#A68051;}
	.st126{fill:#E8DBCA;}
	.st127{fill:#838F4E;}
	.st128{fill:#634A2C;}
	.st129{fill:#EDDB91;}
	.st130{fill:#8A5AAD;}
	.st131{fill:#33ABCC;}
	.st132{fill:#E69035;}
	.st133{fill:#ED68CA;}
	.st134{fill:#A18545;}
	.st135{fill:#5CB05D;}
	.st136{fill:#75D3E3;}
	.st137{fill:#B84D4D;}
	.st138{fill:#FFBD56;}
	.st139{fill:#CF5656;}
	.st140{fill:#FFD556;}
	.st141{fill:#ED7E7E;}
	.st142{fill:#506A78;}
	.st143{fill:#BA6262;}
	.st144{fill:#555157;}
	.st145{fill:#BA4921;}
	.st146{fill:#BA5221;}
	.st147{fill:#861E1E;}
	.st148{fill:#972121;}
	.st149{fill:#AD3030;}
	.st150{fill:#3A292E;}
	.st151{fill:#ACE5EE;}
	.st152{fill:#99979A;}
	.st153{fill:#C17A7A;}
	.st154{fill:#897F82;}
	.st155{fill:#CE8383;}
	.st156{fill:#D6927A;}
	.st157{fill:#D6977A;}
	.st158{fill:#A8792D;}
	.st159{fill:#A87F3C;}
	.st160{fill:#91631B;}
	.st161{fill:#6B5D4C;}
	.st162{fill:#615445;}
	.st163{fill:#A37C50;}
	.st164{fill:#DB9D3D;}
	.st165{fill:#7A6956;}
	.st166{fill:#FFCA76;}
	.st167{fill:#825D34;}
	.st168{fill:#453933;}
	.st169{fill:#CC3540;}
	.st170{fill:#9E3941;}
	.st171{fill:#B3212C;}
	.st172{fill:#8A242C;}
	.st173{fill:#EBC8C9;}
	.st174{fill:#751F25;}
	.st175{fill:#D6963B;}
	.st176{fill:#CF1B35;}
	.st177{fill:#CF3E53;}
	.st178{fill:#BA0B25;}
	.st179{fill:#A1081F;}
	.st180{fill:#FA8A99;}
	.st181{fill:#ABABAB;}
	.st182{fill:#212121;}
	.st183{fill:#EBD2AC;}
	.st184{fill:#CFBB9B;}
	.st185{fill:#8F8575;}
	.st186{fill:#FFD9EE;}
	.st187{fill:#FFABD9;}
	.st188{fill:#D680B0;}
	.st189{fill:#D6AB00;}
	.st190{fill:#73DEFF;}
	.st191{fill:#FF9EF4;}
	.st192{fill:#E38DD9;}
	.st193{fill:#CC8BEF;}
	.st194{fill:#FF9A9A;}
	.st195{fill:#B54343;}
	.st196{fill:#FFCC00;}
	.st197{fill:#EBECEC;}
	.st198{fill:#9466AD;}
	.st199{fill:#A13232;}
	.st200{fill:#F08484;}
	.st201{fill:#414042;}
	.st202{fill:#CBCDCE;}
	.st203{fill:#E0E1E2;}
	.st204{fill:#B6B8BA;}
	.st205{fill:#F5F5F5;}
	.st206{fill:#E7E8E8;}
	.st207{fill:#F9F9F9;}
	.st208{fill:#CFD1D2;}
	.st209{fill:#F1F1F1;}
	.st210{fill:#E6E7E7;}
</style>
<g>
	<polygon class="st197" points="0,48 2,50 57.986,50 59.996,48 	"/>
	<polyline class="st0" points="2,50 57.95,50 57.95,148 2,148 2,50 	"/>
	<polyline class="st202" points="34,111 26,111 26,87 34,87 34,111 	"/>
	<circle class="st0" cx="30" cy="69" r="2"/>
	
		<rect x="29.748" y="66.997" transform="matrix(0.7072 -0.707 0.707 0.7072 -40.0006 41.4149)" class="st203" width="0.5" height="4.003"/>
	<path class="st203" d="M30,71.25c-1.24,0-2.25-1.009-2.25-2.25s1.01-2.25,2.25-2.25s2.25,1.009,2.25,2.25S31.24,71.25,30,71.25z
		 M30,67.25c-0.965,0-1.75,0.785-1.75,1.75s0.785,1.75,1.75,1.75s1.75-0.785,1.75-1.75S30.965,67.25,30,67.25z"/>
	<path class="st0" d="M32,130c0,1.104-0.896,1.999-2,1.999s-2-0.895-2-1.999c0-1.105,0.895-2,2-2S32,128.896,32,130"/>
	<polyline class="st203" points="31.236,131.589 28.406,128.76 28.76,128.407 31.59,131.236 31.236,131.589 	"/>
	<path class="st203" d="M30,132.25c-1.24,0-2.25-1.01-2.25-2.25c0-1.241,1.01-2.25,2.25-2.25c1.24,0,2.25,1.01,2.25,2.25
		C32.25,131.24,31.24,132.25,30,132.25 M30,128.25c-0.965,0-1.75,0.786-1.75,1.751c0,0.964,0.785,1.75,1.75,1.75
		c0.965,0,1.75-0.786,1.75-1.75C31.75,129.035,30.965,128.25,30,128.25"/>
	<polyline class="st197" points="58,148 58,50 59.996,48 59.996,150 58,148 	"/>
	<polyline class="st204" points="0,150 59.996,150 58,148 2,148 0,150 	"/>
	<polygon class="st204" points="2,148 2,50 0,48.02 0,150 	"/>
	<polyline class="st0" points="33,95 27,95 27,88 33,88 33,95 	"/>
	<polyline class="st205" points="33,110 27,110 27,99 33,99 33,110 	"/>
	<polyline class="st206" points="33,99 27,99 27,95 33,95 33,99 	"/>
	<polyline class="st207" points="57.95,147.912 57.95,148 58,148 57.95,147.912 	"/>
	<path class="st207" d="M30,132.25c-1.24,0-2.25-1.01-2.25-2.25c0-1.241,1.01-2.25,2.25-2.25c1.24,0,2.25,1.01,2.25,2.25
		C32.25,131.24,31.24,132.25,30,132.25 M2,50L2,50v98h55.95v-0.088L34,106v5h-8V92L2,50"/>
	<polyline class="st208" points="26,92 26,111 34,111 34,106 33,104.25 33,110 27,110 27,99 30,99 27,99 27,95 27,93.75 26,92 	"/>
	<path class="st207" d="M28.599,128.953c-0.219,0.292-0.349,0.655-0.349,1.048c0,0.964,0.785,1.75,1.75,1.75
		c0.393,0,0.755-0.13,1.048-0.349L28.599,128.953 M30,128.25c-0.392,0-0.755,0.13-1.047,0.349l2.448,2.448
		c0.219-0.292,0.349-0.655,0.349-1.047C31.75,129.035,30.965,128.25,30,128.25"/>
	<path class="st203" d="M28.953,128.599c-0.134,0.1-0.253,0.22-0.354,0.354l2.448,2.448c0.134-0.1,0.253-0.22,0.353-0.354
		L28.953,128.599"/>
	<path class="st203" d="M28.953,128.599c0.292-0.219,0.655-0.349,1.047-0.349c0.965,0,1.75,0.786,1.75,1.751
		c0,0.392-0.13,0.755-0.349,1.047c-0.1,0.134-0.219,0.253-0.353,0.354c-0.292,0.219-0.655,0.349-1.048,0.349
		c-0.965,0-1.75-0.786-1.75-1.75c0-0.393,0.13-0.755,0.349-1.048C28.7,128.819,28.819,128.699,28.953,128.599 M30,127.75
		c-1.24,0-2.25,1.01-2.25,2.25c0,1.24,1.01,2.25,2.25,2.25c1.24,0,2.25-1.01,2.25-2.25C32.25,128.76,31.24,127.75,30,127.75"/>
	<polyline class="st207" points="27,93.75 27,95 27.714,95 27,93.75 	"/>
	<polyline class="st209" points="30,99 27,99 27,110 33,110 33,104.25 30,99 	"/>
	<polyline class="st210" points="27.714,95 27,95 27,99 30,99 27.714,95 	"/>
</g>
</svg>
